<?xml version="1.0" encoding="utf-8"?>
<!-- Generator: Adobe Illustrator 16.0.0, SVG Export Plug-In . SVG Version: 6.00 Build 0)  -->
<!DOCTYPE svg PUBLIC "-//W3C//DTD SVG 1.1//EN" "http://www.w3.org/Graphics/SVG/1.1/DTD/svg11.dtd">
<svg version="1.1" id="Layer_1" xmlns="http://www.w3.org/2000/svg" xmlns:xlink="http://www.w3.org/1999/xlink" x="0px" y="0px"
	 width="20px" height="20px" viewBox="0 0 20 20" enable-background="new 0 0 20 20" xml:space="preserve">
<path fill="#27AAE1" d="M11,4h3v15.162c0.716-0.313,1.383-0.712,2-1.176V9h3v5.337c0.634-1.313,1-2.781,1-4.337
	c0-5.523-4.478-10-10-10C4.477,0,0,4.477,0,10c0,1.557,0.366,3.024,1,4.338V11h3v6.986c0.617,0.464,1.284,0.863,2,1.176V7h3v12.949
	C9.329,19.982,9.663,20,10,20s0.671-0.018,1-0.051V4z"/>
</svg>
