<?xml version="1.0" encoding="utf-8"?>
<!-- Generator: Adobe Illustrator 16.0.0, SVG Export Plug-In . SVG Version: 6.00 Build 0)  -->
<!DOCTYPE svg PUBLIC "-//W3C//DTD SVG 1.1//EN" "http://www.w3.org/Graphics/SVG/1.1/DTD/svg11.dtd">
<svg version="1.1" id="Layer_1" xmlns="http://www.w3.org/2000/svg" xmlns:xlink="http://www.w3.org/1999/xlink" x="0px" y="0px"
	 width="20px" height="20px" viewBox="0 0 20 20" enable-background="new 0 0 20 20" xml:space="preserve">
<path fill="#27AAE1" d="M10,0C4.478,0,0,4.478,0,10s4.478,10,10,10s10-4.478,10-10S15.522,0,10,0z M2.75,8h4.5C7.665,8,8,8.447,8,9
	s-0.335,1-0.75,1h-4.5C2.335,10,2,9.553,2,9S2.335,8,2.75,8z M2,13c0-0.553,0.503-1,1.125-1h6.75C10.497,12,11,12.447,11,13
	s-0.503,1-1.125,1h-6.75C2.503,14,2,13.553,2,13z M15,18H9c-0.553,0-1-0.447-1-1s0.447-1,1-1h6c0.553,0,1,0.447,1,1S15.553,18,15,18
	z M15.25,6H4.75C3.782,6,3,5.553,3,5s0.782-1,1.75-1h10.5C16.218,4,17,4.447,17,5S16.218,6,15.25,6z"/>
</svg>
