<?xml version="1.0" encoding="utf-8"?>
<!-- Generator: Adobe Illustrator 16.0.0, SVG Export Plug-In . SVG Version: 6.00 Build 0)  -->
<!DOCTYPE svg PUBLIC "-//W3C//DTD SVG 1.1//EN" "http://www.w3.org/Graphics/SVG/1.1/DTD/svg11.dtd">
<svg version="1.1" id="Layer_1" xmlns="http://www.w3.org/2000/svg" xmlns:xlink="http://www.w3.org/1999/xlink" x="0px" y="0px"
	 width="20px" height="20px" viewBox="0 0 20 20" enable-background="new 0 0 20 20" xml:space="preserve">
<path fill="#27AAE1" d="M10,0C4.477,0,0,4.478,0,10s4.477,10,10,10c5.522,0,10-4.478,10-10S15.522,0,10,0z M16.5,8
	c-0.093,0-0.183-0.011-0.271-0.027l-4.592,6.56C11.86,14.795,12,15.129,12,15.5c0,0.828-0.672,1.5-1.5,1.5
	c-0.184,0-0.358-0.038-0.521-0.099l-0.051,0.073l-0.059-0.118C9.357,16.618,9,16.102,9,15.5c0-0.107,0.013-0.213,0.034-0.313
	L6.438,9.994C6.16,9.982,5.9,9.898,5.682,9.755l-1.67,3.341C4.587,13.306,5,13.853,5,14.5C5,15.328,4.328,16,3.5,16S2,15.328,2,14.5
	c0-0.602,0.357-1.118,0.869-1.356l2.165-4.33C5.013,8.712,5,8.608,5,8.5c0-0.603,0.357-1.118,0.869-1.356L6,6.882l0.091,0.182
	C6.222,7.026,6.357,7,6.5,7C7.328,7,8,7.671,8,8.5c0,0.487-0.236,0.916-0.596,1.19l2.277,4.555C9.917,14.091,10.198,14,10.5,14
	c0.093,0,0.183,0.011,0.271,0.027l4.592-6.56C15.14,7.206,15,6.871,15,6.5C15,5.672,15.672,5,16.5,5S18,5.672,18,6.5
	S17.328,8,16.5,8z"/>
</svg>
