<?xml version="1.0" encoding="utf-8"?>
<!-- Generator: Adobe Illustrator 16.0.0, SVG Export Plug-In . SVG Version: 6.00 Build 0)  -->
<!DOCTYPE svg PUBLIC "-//W3C//DTD SVG 1.1//EN" "http://www.w3.org/Graphics/SVG/1.1/DTD/svg11.dtd">
<svg version="1.1" id="Layer_1" xmlns="http://www.w3.org/2000/svg" xmlns:xlink="http://www.w3.org/1999/xlink" x="0px" y="0px"
	 width="20px" height="20px" viewBox="0 0 20 20" enable-background="new 0 0 20 20" xml:space="preserve">
<path fill="#27AAE1" d="M10,0C4.477,0,0,4.478,0,10s4.477,10,10,10c5.522,0,10-4.478,10-10S15.522,0,10,0z M3,10.5
	c-0.828,0-1.5-0.672-1.5-1.5S2.172,7.5,3,7.5S4.5,8.172,4.5,9S3.828,10.5,3,10.5z M7,17c-1.104,0-2-0.896-2-2s0.896-2,2-2
	s2,0.896,2,2S8.104,17,7,17z M8,8C7.448,8,7,7.552,7,7s0.448-1,1-1s1,0.448,1,1S8.552,8,8,8z M13,12.5c-0.828,0-1.5-0.672-1.5-1.5
	s0.672-1.5,1.5-1.5s1.5,0.672,1.5,1.5S13.828,12.5,13,12.5z M15,6.5c-0.828,0-1.5-0.672-1.5-1.5s0.672-1.5,1.5-1.5
	s1.5,0.672,1.5,1.5S15.828,6.5,15,6.5z M18,13c-0.553,0-1-0.447-1-1s0.447-1,1-1s1,0.447,1,1S18.553,13,18,13z"/>
</svg>
