<?xml version="1.0" encoding="utf-8"?>
<!-- Generator: Adobe Illustrator 16.0.0, SVG Export Plug-In . SVG Version: 6.00 Build 0)  -->
<!DOCTYPE svg PUBLIC "-//W3C//DTD SVG 1.1//EN" "http://www.w3.org/Graphics/SVG/1.1/DTD/svg11.dtd">
<svg version="1.1" id="Layer_1" xmlns="http://www.w3.org/2000/svg" xmlns:xlink="http://www.w3.org/1999/xlink" x="0px" y="0px"
	 width="20px" height="20px" viewBox="0 0 20 20" enable-background="new 0 0 20 20" xml:space="preserve">
<path fill="#27AAE1" d="M20,4c0-1.104-0.896-2-2-2H2C0.896,2,0,2.896,0,4v12c0,1.104,0.896,2,2,2h16c1.104,0,2-0.896,2-2V4z M12,16
	H8v-2h4V16z M12,12H8v-2h4V12z M12,8H8V6h4V8z M18,16h-4v-2h4V16z M18,12h-4v-2h4V12z M18,8h-4V6h4V8z"/>
</svg>
