<?xml version="1.0" encoding="utf-8"?>
<!-- Generator: Adobe Illustrator 16.0.0, SVG Export Plug-In . SVG Version: 6.00 Build 0)  -->
<!DOCTYPE svg PUBLIC "-//W3C//DTD SVG 1.1//EN" "http://www.w3.org/Graphics/SVG/1.1/DTD/svg11.dtd">
<svg version="1.1" id="Layer_1" xmlns="http://www.w3.org/2000/svg" xmlns:xlink="http://www.w3.org/1999/xlink" x="0px" y="0px"
	 width="20px" height="20px" viewBox="0 0 20 20" enable-background="new 0 0 20 20" xml:space="preserve">
<path fill="#27AAE1" d="M4,14H3H0.838c1.544,3.53,5.063,6,9.162,6c4.1,0,7.618-2.47,9.162-6H4z"/>
<g>
	<path fill="#27AAE1" d="M6.158,3.05L8.183,8.11l2.771-2.771l3.98,2.986l3.424-3.809C16.57,1.798,13.496,0,10,0
		C4.478,0,0,4.478,0,10c0,0.065,0.006,0.129,0.007,0.194L6.158,3.05z"/>
	<path fill="#27AAE1" d="M15.066,9.674l-4.02-3.014L7.817,9.89L5.842,4.95l-5.463,6.345l-0.321-0.276
		C0.127,11.701,0.26,12.365,0.459,13H3v-1h1v1h3v-1h1v1h3v-1h1v1h3v-1h1v1h3.541C19.838,12.053,20,11.045,20,10
		c0-1.65-0.406-3.203-1.114-4.574L15.066,9.674z"/>
</g>
</svg>
